<svg id="Calque_1" data-name="Calque 1" xmlns="http://www.w3.org/2000/svg" xmlns:xlink="http://www.w3.org/1999/xlink" viewBox="0 0 477.88 477.88"><defs><style>.cls-1{fill:url(#Dégradé_sans_nom_109);}.cls-2{fill:url(#Dégradé_sans_nom_109-2);}.cls-3{fill:url(#Dégradé_sans_nom_109-3);}.cls-4{fill:url(#Dégradé_sans_nom_109-4);}.cls-5{fill:url(#Dégradé_sans_nom_109-5);}.cls-6{fill:url(#Dégradé_sans_nom_167);}.cls-7{fill:url(#Dégradé_sans_nom_109-6);}.cls-8{fill:url(#Dégradé_sans_nom_109-7);}</style><linearGradient id="Dégradé_sans_nom_109" x1="558.43" y1="553.15" x2="314.98" y2="131.48" gradientUnits="userSpaceOnUse"><stop offset="0" stop-color="#cfb888"/><stop offset="0.96" stop-color="#faf8f3"/></linearGradient><linearGradient id="Dégradé_sans_nom_109-2" x1="434.32" y1="184.89" x2="391.32" y2="110.42" xlink:href="#Dégradé_sans_nom_109"/><linearGradient id="Dégradé_sans_nom_109-3" x1="448.57" y1="206.9" x2="375.07" y2="334.21" xlink:href="#Dégradé_sans_nom_109"/><linearGradient id="Dégradé_sans_nom_109-4" x1="385.46" y1="378.01" x2="329.88" y2="281.74" xlink:href="#Dégradé_sans_nom_109"/><linearGradient id="Dégradé_sans_nom_109-5" x1="481.32" y1="354.89" x2="452.19" y2="304.44" xlink:href="#Dégradé_sans_nom_109"/><linearGradient id="Dégradé_sans_nom_167" x1="277.74" y1="434.94" x2="545.2" y2="280.52" gradientUnits="userSpaceOnUse"><stop offset="0" stop-color="#cfb888"/><stop offset="1" stop-color="#faf8f3"/></linearGradient><linearGradient id="Dégradé_sans_nom_109-6" x1="511.65" y1="387.23" x2="494.48" y2="357.51" xlink:href="#Dégradé_sans_nom_109"/><linearGradient id="Dégradé_sans_nom_109-7" x1="362.18" y1="428.04" x2="290.14" y2="303.27" xlink:href="#Dégradé_sans_nom_109"/></defs><path class="cls-1" d="M412.82,62c-132,0-238.94,107-238.94,238.94s107,238.94,238.94,238.94,238.94-107,238.94-238.94S544.79,62,412.82,62Zm0,456.88c-1.66,0-3.31,0-5-.06q-8.83-.2-17.49-1.09c-109.81-11.23-195.49-104-195.49-216.79C194.88,180.58,292.46,83,412.82,83s217.94,97.58,217.94,217.94S533.19,518.88,412.82,518.88Z" transform="translate(-173.88 -62)"/><path class="cls-2" d="M436,161a6,6,0,0,0-.18,4.32l-10,.26a5.78,5.78,0,0,0,1.68,11.08l17.3-.2A43,43,0,0,1,370,151.5l16.35-.16q10.36-.09,20.65-.13a5.94,5.94,0,0,0-.71-11.21l-10.72.26a6.5,6.5,0,0,0-.35-5.69,6.25,6.25,0,0,0-3.62-2.69q-4.64-.06-9.39,0t-9.42.1a43,43,0,0,1,81.88,25.6l-15.29.28A6,6,0,0,0,436,161Z" transform="translate(-173.88 -62)"/><path class="cls-3" d="M299.71,279.85l.08-15.79q3.49-8.34,7-16.68a56.81,56.81,0,0,1,9.84,1.77,54.26,54.26,0,0,1,11.52,4.54,49.53,49.53,0,0,1,6.88,4.55l2.91-.4q2.64-4.5,5.65-9.18,1.92-3,3.84-5.78l2.25-3a25.27,25.27,0,0,0,4.63,3.49c3.71,2.17,5,1.65,9.62,3.62,1.4.6,4.14,2.19,9.61,5.38,2,1.15,3.61,2.11,4.73,2.78l1.1-.18c4-3.71,7.37-6.7,10-8.91a69,69,0,0,1,7.9-6.18c3.35-2.13,3.78-1.83,6.66-3.92,2.17-1.59,4.8-3.84,6.7-5.47l1.68-1.46c2.55,2.16,4.76,4,6.49,5.34a94.37,94.37,0,0,0,8.33,6.17c1.37.88,2.54,1.57,3.36,2a29.13,29.13,0,0,1,5.38,2.74,37.63,37.63,0,0,1,6.09,5.12c1.71,1.66,3.05,3.13,4,4.19l1.5.22a103.37,103.37,0,0,1,10.41-5.91c3.12-1.54,4.7-2.13,8-3.8a97,97,0,0,0,8.92-5.12,2,2,0,0,1,.66,0c1.43.26,2.19,2.17,2.47,2.83,1.73,4.06,4.23,4.94,8,11.65.24.41,1.72,3.08,1.72,3.08a2.54,2.54,0,0,0,1.2.53,2.74,2.74,0,0,0,1.54-.26c2-.9,7.59-4.8,10.59-6.27a17.37,17.37,0,0,1,5.29-1.58,90.2,90.2,0,0,1,8.78-2.39c1.05-.23,2.08-.43,3.09-.61.49.83,1.16,2.06,1.9,3.57a62.12,62.12,0,0,1,3.48,9.13c.41,1.37.91,3.21,1.37,5.43q.06,7.36.13,14.73-3.95,5.1-8.2,10.33t-8.47,10.1c-.3-.93-.74-2.22-1.28-3.75-1-2.7-1.87-5.22-3.18-8a67.39,67.39,0,0,0-6.26-10.59c-1.22-1.72-2.3-3.11-3.09-4.1-2.54,1.22-6.22,3-10.64,5.29-5.51,2.84-8.35,4.3-11.95,6.44a92.74,92.74,0,0,0-11.3,7.59,88.6,88.6,0,0,0-8,7.37,49.73,49.73,0,0,0-7.64,9.62c-.56,1-1,1.79-1.28,2.38A10.92,10.92,0,0,0,439,307a10.37,10.37,0,0,0-3.36-1.24v-7.5a39.64,39.64,0,0,1,3.71-6.22,33.74,33.74,0,0,1,5.87-6.44,31.05,31.05,0,0,1,10.05-5.6c.08-.65.15-1.3.23-1.95a8.38,8.38,0,0,0-1.95-1.32,8.18,8.18,0,0,0-2.73-.79,22.9,22.9,0,0,0-5.69,2.56c-2.21,1.37-3.7,2.9-6.58,5.91a42.51,42.51,0,0,0-5.42,6.44c-2.15,3.26-2.67,5.22-2.87,6.57a13.21,13.21,0,0,0-.09,3.13,14.63,14.63,0,0,0-2.29-1.72,14,14,0,0,0-1.63-.83,20.46,20.46,0,0,1,.17-4.11,23.26,23.26,0,0,1,3-8,42.71,42.71,0,0,1,5.91-8.42,45.21,45.21,0,0,1,6-5.61c.69-1.79.4-2.48.13-2.78-1.32-1.45-6.63,1.53-7.59,2.08A42.54,42.54,0,0,0,422,294.85a7.55,7.55,0,0,0-1.85-1.54,7.08,7.08,0,0,0-1.77-.75c.57-3.52,1.2-6.45,1.72-8.65,1.63-6.82,2.95-9.61,3.75-11.12a22.2,22.2,0,0,1,3.09-4.5,20.79,20.79,0,0,1,3.18-2.86,2.4,2.4,0,0,0-1.06-3.44s-.63-.26-3.62.75h0c-5.4,6.55-6.31,8.25-6.31,8.25-1.06,2-1.62,4-2.73,8.11-1,3.75-1.67,6.91-2.08,9.18l-4.72-5a81.51,81.51,0,0,0-3.35-9.22,62.5,62.5,0,0,0-4.59-8.11c-1.33-2.06-2.32-3.37-3.88-3.58a3.48,3.48,0,0,0-3.09,1.15,3.3,3.3,0,0,0-.48,2.69,17.08,17.08,0,0,1,5.78,5.52c.83,1.32,1.45,3.18,2.69,6.92a66.62,66.62,0,0,1,2.07,7.24,57,57,0,0,1,1,5.73,10,10,0,0,1-1.5,1.81,9.56,9.56,0,0,1-1.72,1.32,20.39,20.39,0,0,0-.26-4.76c-.59-3.31-1.88-5.55-3.71-8.69-.52-.89-2.17-3.13-5.47-7.59-2.87-3.89-4-5.29-5.91-5.65-.43-.07-2.43-.44-3.44.8a3.12,3.12,0,0,0-.49,2.47c1.18,1.09,2.81,2.64,4.68,4.59,2.91,3,4.37,4.56,5.73,6.75a27.52,27.52,0,0,1,4.06,15.79,6.55,6.55,0,0,0-1.37.62,6.79,6.79,0,0,0-1.5,1.23,17.51,17.51,0,0,0-.88-4.76c-.89-2.68-2.2-4.39-4.1-6.84a45.71,45.71,0,0,0-6.35-6.66,38.06,38.06,0,0,0-7.33-4.85c-1.36-.77-2.59-1.39-4-1.06s-2.74,1.37-2.74,2.51c0,.53.31,1.3,3.84,3.27,3,1.64,4,1.8,5.6,2.69,2.79,1.53,4.33,3.61,5.91,5.73a22.38,22.38,0,0,1,4.37,9.36,20.69,20.69,0,0,1,.31,5.91c-1.81,1.67-3.75,3.37-5.82,5.07-1,.83-2,1.62-3,2.38a20.76,20.76,0,0,0-1.72-4.36c-1.69-3.19-3.78-5.1-6.75-7.68-4.82-4.18-7.23-6.28-9.75-8.12-3.66-2.67-3-1.84-13.11-8.34-3.84-2.46-8-4.42-11.91-6.75-2.19-1.3-4.22-2.53-6.57-2-2,.44-3.26,1.94-4.85,3.93-2.22,2.77-1.87,3.54-4.9,9.13-2,3.66-3.05,5-3.71,8a19.32,19.32,0,0,0-.44,3.75c-2-2.68-3.81-5-5.34-6.92-.66-.83-3-3.78-6.31-7.59C303.15,283.67,301.26,281.56,299.71,279.85Z" transform="translate(-173.88 -62)"/><path class="cls-4" d="M331.47,280.82c-2.43,3.26-8.1,11.45-9.71,20.83-1,5.64.06,8.7.53,9.88,1,2.45,2.15,3.33,3.71,5.65,3.1,4.58,3.51,8.51,4.41,11.82,1.49,5.44,5.29,10,12.88,19.06,6.44,7.69,10.23,12.22,16.95,16.41,3.47,2.17,4.85,2.45,12.7,6.88,5.07,2.87,9.14,5.37,11.82,7.06-.91-1.53-2.26-3.79-3.88-6.53-4.19-7.08-6.3-10.65-7.06-12.35-1.95-4.35-2.47-8-3.53-15.35-1.37-9.57-2-14.44.53-18.36,1.41-2.17,2.74-2.68,3.71-5.29,1.36-3.68.47-7.43-.53-10.06A90.12,90.12,0,0,0,362.18,299a113.89,113.89,0,0,0-15.89-10.41C342.24,286.24,337.27,283.56,331.47,280.82Z" transform="translate(-173.88 -62)"/><path class="cls-5" d="M491.88,281.53C481,288,471.45,293.9,463.12,299.18c-3.69,2.34-8.89,5.72-11.83,12.17a23.9,23.9,0,0,0-1.94,7.06,9.8,9.8,0,0,1,2.65,2.12c2.63,3,2.6,6.87,2.47,11.47-.29,10-.43,15-.88,17.12-1.47,6.73-3.89,11.37-6.88,17.12A104.72,104.72,0,0,1,440,377.35l6.88-4.23a52.7,52.7,0,0,0,12.88-5.83c4.39-2.74,8.75-7.16,17.3-15.88,7.17-7.31,8.75-9.37,9.53-10.41.94-1.26,3.39-4.63,7.76-13.06,2.38-4.59,5.38-10.77,8.47-18.35a28.15,28.15,0,0,0-.17-8.3c-1-5.75-3.57-9.79-5.65-13.05A49.9,49.9,0,0,0,491.88,281.53Z" transform="translate(-173.88 -62)"/><path class="cls-6" d="M571.12,392.53a19.06,19.06,0,0,1-3.53,6.35,20.23,20.23,0,0,1-7.77,5.47c-13.48,6-20.64,7.94-20.64,7.94-4.23,1.16-10.52,2.76-19.94,4.59-6.89,1.34-16.31,3.15-28.77,4.41a207.59,207.59,0,0,1-25.23,1.42c-18.17-.19-27.25-.28-35.65-3.53-3.37-1.31-8.53-3.7-10.06-1.94-1.08,1.23-.27,4.43,1.41,6.35a7.22,7.22,0,0,0,2.82,1.94c12.34,4.76,8.2,4.85,17.48,7.06a160.12,160.12,0,0,0,24.88,3.7c9.72.8,16.66,1.37,26.29.71a102.79,102.79,0,0,0,24.18-4.06,95.36,95.36,0,0,0,17.47-7.23,47.83,47.83,0,0,1-10.24,8.64,51.59,51.59,0,0,1-15.88,6.36c-9.33,2.26-16.51,2.16-26.65,1.94a193.13,193.13,0,0,1-31.41-3.18c-13.54-2.56-20.31-3.84-24.35-6.88-.72-.54-3.43-2.67-4.41-1.94-.81.6-.18,2.92.53,4.41a10.88,10.88,0,0,0,3.7,4.23c5.27,3.68,3.88,4.71,11.65,10.59,5.34,4.05,8.52,6.45,13.59,8.3a41.37,41.37,0,0,0,12.35,2.29,45.62,45.62,0,0,0,22.59-5.29,19.49,19.49,0,0,1-3.18,4.06c-7.27,7.08-18.22,6.23-23.47,5.82a42.5,42.5,0,0,1-20.29-6.71,67.41,67.41,0,0,1-11.3-9.35c-3.24-3.56-5.15-6.65-6.7-6.18-1.72.53-1.75,5-1.77,6.36-.14,10.77-1.81,21.59-4.76,40.58-2.86,18.4-5.91,16.28-6.18,27.89,0,.38,0,.77,0,1.17q-8.83-.2-17.49-1.09c1.19-2.68,2.52-5.8,3.92-9.26,3.65-9,5.47-13.47,7.06-19.41,1.88-7,2.49-12.55,3.71-23.65.93-8.45,1.16-14.26,1.23-17.82.08-3.3,0-6.08,0-8.12-1.36,1.67-3.39,4.09-6,6.88-4.69,5-7.47,8-11.64,10.94a46.61,46.61,0,0,1-14.3,6.71c-3.75,1-9.56,2.58-16.76,1.24a33.53,33.53,0,0,1-17.47-9.53,35.09,35.09,0,0,0,9.88,3.53c4.72.91,8.4.58,13.06.17s7.89-.69,12-2.12a40.92,40.92,0,0,0,11.82-6.7,70.75,70.75,0,0,0,11.83-11.65c2.77-3.22,4.89-6.07,6.35-8.12a99.86,99.86,0,0,1-36,9.89c-4.86.58-11.92,1.28-20.47,1.58-9.78.35-16.78.56-25.94-.88-7.81-1.22-14.85-2.4-22.41-7.23a44.48,44.48,0,0,1-9.89-8.65,78,78,0,0,0,13.24,6.35,88,88,0,0,0,19.23,4.41,138.87,138.87,0,0,0,30.18.53c6.26-.47,2.23-.52,27.35-4.41,6.94-1.07,14.52-2.19,22.24-7.59.91-.63,1.64-1.2,2.12-1.58-.24-1.71-.47-3.42-.71-5.12-4,.54-9.77,1.3-16.76,2.12-14.44,1.67-21.66,2.51-28.24,2.64-9.18.19-16.76-.81-31.94-2.82-7.25-1-15.54-2.07-26.47-4.41-1.24-.27-10.26-2.95-28.24-8.3-5.45-1.62-10.68-3.25-14.82-8.11a22.49,22.49,0,0,1-4.41-8.3,73.38,73.38,0,0,0,9.17,6.71,80.06,80.06,0,0,0,15,7.06c2,.72,7.21,2.5,20.47,4.94,6,1.1,13.14,2.25,22.42,3.35,9.61,1.14,17.59,2.09,28.41,2.47a209.78,209.78,0,0,0,33.53-1.06,194.33,194.33,0,0,0,21.35-3.7c.13-.89.28-2.17.35-3.71.12-2.41.32-6.45-.7-9-1.61-4-6.67-5.5-9.53-6.35-8.93-2.67-17.61-6.21-26.65-8.47-6.56-1.65-17.55-4.4-28.23-10.94-12.46-7.63-19.74-17.49-25.59-25.42-4.51-6.11-7.6-11.72-13.77-22.94-5.93-10.79-8.9-16.19-11.47-23.47a100.72,100.72,0,0,1-5.47-27.17c2.49,1.92,5.74,4.57,9.35,7.94a140.43,140.43,0,0,1,17.12,19.41c5,6.78,8.1,11,11.12,17.65,2.21,4.85,2.79,7.53,6.18,14.47a93.23,93.23,0,0,0,6,10.94c4.56,6.92,9.25,11,15.88,16.76a119.11,119.11,0,0,0,17.29,12.88c4.83,2.93,7.26,3.9,19.06,9.53,8,3.82,14.44,7,18.53,9a21,21,0,0,0-3.35-5.64,20.2,20.2,0,0,0-2.65-2.65c-3-2.58-9.83-10.87-14.82-21.53a65.06,65.06,0,0,1-6.53-21.88,61.21,61.21,0,0,1,0-12.71,107.22,107.22,0,0,1,9.53-10.94c2.48-2.48,5.07-4.83,16.76-14.29,4.05-3.28,7.45-6,9.88-7.94,4.69,3.27,8.58,6.12,11.48,8.29,11.9,8.92,15.7,12.77,18.52,16.06s4.33,5,5.48,7.59c3.05,6.76,1.91,13.21.52,20.47-1,5.35-2.41,12.63-7.41,20.29-4,6.1-7.1,7.63-13.59,17.12-2.16,3.16-3.76,5.85-4.76,7.59,3.11-1.25,7.58-3.1,12.88-5.47,13.3-5.95,20.78-9.3,28.77-14.65a106.88,106.88,0,0,0,23.82-22.06c2.16-2.73,5-6.57,17.29-29.29,6.82-12.59,6.54-16.2,12.18-22.94,3.48-4.17,8.06-8.46,14.65-14.65,3.95-3.71,7.32-6.73,9.7-8.83a59.15,59.15,0,0,1-.53,13.77c-.32,2.1-1.4,8.25-9.52,25.41-2.93,6.19-5.7,12-10.24,19.77a143.22,143.22,0,0,1-13.94,20.64c-5.21,6.3-9.23,11.16-16.06,15.89-6.07,4.2-11.46,6.21-22.24,10.23a161.43,161.43,0,0,1-18.17,6c-9.91,2.55-16,3-23.3,7.94a38.38,38.38,0,0,0-5.47,4.59c-.55.95-3.17,5.59-1.23,9.88A7.87,7.87,0,0,0,422,410c3.17,3.46,5.82,2.5,28.59,4.94,14.74.49,22.11.73,23.82.71a266.93,266.93,0,0,0,32.65-2.47c9.21-1.27,19-3.61,38.47-8.3a62.13,62.13,0,0,0,16.23-6A59.16,59.16,0,0,0,571.12,392.53Z" transform="translate(-173.88 -62)"/><path class="cls-7" d="M423.06,404a28.95,28.95,0,0,1,14-7.46,30.34,30.34,0,0,1,7.66-.66c6.27.24,16.89-1.67,31.24-4.23,16.13-2.89,27.77-5,42.53-10.59s23.35-11.27,26.47-13.41c8.62-5.94,15-10.33,18.88-18.36,1.21-2.49,2.35-5.7,5.47-11.82,2.29-4.47,4.38-8,5.83-10.41a37.8,37.8,0,0,0-10.42,4.06c-6.67,3.84-9.56,8.32-15.35,14.82a143.65,143.65,0,0,1-16.06,15.35c-8.71,6.9-16.58,10.27-24.35,13.59-10.44,4.47-18.56,6.5-30,9.36-15,3.74-22.48,5.61-28.59,6.17-2,.19-6.84,1.31-16.45,3.55-3.54.82-7.39,1.78-9.49,5.1A9.73,9.73,0,0,0,423.06,404Z" transform="translate(-173.88 -62)"/><path class="cls-8" d="M401.85,405.14a28.93,28.93,0,0,0-6.67-4.94,29.27,29.27,0,0,0-7.26-2.73,30.08,30.08,0,0,0-7.65-.77c-6.27.14-16.87-1.92-31.17-4.71-16.09-3.13-27.69-5.38-42.37-11.23s-23.18-11.61-26.26-13.8c-8.54-6.07-14.85-10.56-18.61-18.64-1.17-2.51-2.25-5.74-5.29-11.9-2.21-4.51-4.25-8.11-5.67-10.5a37.9,37.9,0,0,1,10.35,4.21c6.62,3.95,9.44,8.47,15.13,15.06a145.11,145.11,0,0,0,15.83,15.59c8.61,7,16.42,10.51,24.14,14,10.38,4.62,18.46,6.77,29.86,9.81,14.93,4,22.39,5.95,28.49,6.6,2,.22,6.82,1.41,16.4,3.8,3.53.87,7.36,1.89,9.41,5.24A9.78,9.78,0,0,1,401.85,405.14Z" transform="translate(-173.88 -62)"/></svg>